# xmcd
#
# Track frame offsets:
#	150
#	18170
#	37555
#	51392
#	68340
#	84882
#	103732
#	122390
#	136547
#	151402
#	166205
#	179740
#	196485
#	211282
#	229730
#	248487
#
# Disc length: 3519 seconds
#
# Revision: 1
# Processed by: cddbd v1.5.1PL0 Copyright (c) Steve Scherf et al.
# Submitted via: CDRider 2.1
#
DISCID=bc0dbd10
DTITLE=Ihász Gábor - Múlnak a gyermekévek
DYEAR=1994
DGENRE=Country
TTITLE0=Amíg élsz
TTITLE1=Amikor az álom
TTITLE2=Dúdold el
TTITLE3=Bolond kis életünk
TTITLE4=Állj meg, kislány!
TTITLE5=Ne titkold
TTITLE6=Kicsit bolond vagyok
TTITLE7=Elszáll a gondom
TTITLE8=Válaszolj nekem
TTITLE9=Szerelem '86
TTITLE10=Elsöpri a szél
TTITLE11=Csillag vagy nekem
TTITLE12=Te és én
TTITLE13=Múlnak a gyermekévek
TTITLE14=Szerelmes a lányom
TTITLE15=Amíg dobog a szív
EXTD=
EXTT0=
EXTT1=
EXTT2=
EXTT3=
EXTT4=
EXTT5=
EXTT6=
EXTT7=
EXTT8=
EXTT9=
EXTT10=
EXTT11=
EXTT12=
EXTT13=
EXTT14=
EXTT15=
PLAYORDER=
